<svg xmlns="http://www.w3.org/2000/svg" width="46.697" height="45.846" viewBox="0 0 46.697 45.846"><defs><style>.a{fill:#4093cb;}.b{fill:#3b91c9;}.c{fill:#2673a5;}.d{fill:#0d5380;}</style></defs><g transform="matrix(-1, -0.017, 0.017, -1, 46.47, 45.846)"><path class="a" d="M7.382,1.941,3.2,7.443a2.328,2.328,0,0,1-2.079.392l-.009,0C.253,7.653-.2,7.189.087,6.792L4.762.494a2.339,2.339,0,0,1,2.1-.433L20.334,2.979c.859.186,1.276.67.933,1.08a2.475,2.475,0,0,1-2.162.406Z" transform="translate(15.386 16.573)"/><path class="b" d="M10.93,3.193,4.69,12.247c-.435.636-1.8.939-3.045.68l-.013,0c-1.253-.266-1.927-1-1.508-1.64L7.042.864C7.5.173,8.9-.172,10.194.084L30.2,4.551c1.267.283,1.852,1.066,1.311,1.746a3.552,3.552,0,0,1-3.241.721Z" transform="translate(0 0)"/><path class="c" d="M5.727,1.389,2.474,5.312a1.907,1.907,0,0,1-1.615.269l-.007,0c-.66-.137-1.01-.475-.783-.76L3.72.34A1.9,1.9,0,0,1,5.335.048L15.707,2.226c.664.14.99.489.731.78a2,2,0,0,1-1.662.276h0Z" transform="translate(25.962 30.726)"/><path class="d" d="M4.451,1.015,1.976,3.822A1.585,1.585,0,0,1,.7,4H.693c-.53-.108-.816-.36-.642-.565l2.78-3.2A1.577,1.577,0,0,1,4.1.042l8.273,1.707c.525.115.783.374.575.579a1.658,1.658,0,0,1-1.271.174Z" transform="translate(34.171 40.985)"/></g></svg>