<svg xmlns="http://www.w3.org/2000/svg" xmlns:xlink="http://www.w3.org/1999/xlink" width="1258.118" height="533.834" viewBox="0 0 1258.118 533.834"><defs><style>.a{fill:#2471af;}.b{fill:url(#a);}.c{fill:url(#b);}.d{fill:url(#c);}.e{fill:url(#e);}</style><linearGradient id="a" x1="0.5" x2="0.5" y2="1" gradientUnits="objectBoundingBox"><stop offset="0" stop-color="#59adef" stop-opacity="0"/><stop offset="0.296" stop-color="#1b73b7" stop-opacity="0.992"/><stop offset="0.64" stop-color="#196aa9"/><stop offset="1" stop-color="#137ed1"/></linearGradient><linearGradient id="b" x1="1.003" y1="0.5" x2="0.002" y2="0.475" gradientUnits="objectBoundingBox"><stop offset="0" stop-color="#e5e5e5" stop-opacity="0.902"/><stop offset="0.419" stop-color="#e5e5e5"/><stop offset="1" stop-color="#e5e5e5"/></linearGradient><linearGradient id="c" x1="1.003" y1="0.5" x2="0.002" y2="0.525" xlink:href="#b"/><linearGradient id="e" x1="1.003" y1="0.5" x2="0.002" y2="0.525" gradientUnits="objectBoundingBox"><stop offset="0" stop-color="#e8e8e8" stop-opacity="0.902"/><stop offset="0.419" stop-color="#e5e5e5"/><stop offset="1" stop-color="#e5e5e5"/></linearGradient></defs><g transform="translate(-87.699 -422.04)"><path class="a" d="M-6702.989,16289.5v-119.481s509.755-282.061,535.486-293.971c.431-.2,0,17.53,0,17.53V15909l1.6,1.905h7.013l1.837-1.905v-8.147s4.561,1,6.076-.3a16.56,16.56,0,0,0,1.75-1.607,13.435,13.435,0,0,0,1.734,1.905,3.437,3.437,0,0,0,2.065.557s30.459.354,31.618-.172a8.073,8.073,0,0,0,2.383-2.262l1.923,2.262h5.694s.027,5.825,0,7.808,3.6,1.79,3.6,1.79h5.246l1.742-1.79.223-39.388-1.163-3.009h4.56l2.9-2.6v4.975l3.875,2.415.764,9.813,5.077.79,3.354-.79.336-4.286h33.438l2.365,6.478,8.808-1.222v-13.591l579.95,293.808v126.188Z" transform="translate(6791 -15442)"/><path class="b" d="M-20477.027,21757.164l-586-296.937h-73.5l-594.543,297.324.145,222.813,1253.891-.7Z" transform="translate(21819.809 -21036.695)"/><path class="c" d="M.611,0l595.1,4.36L0,2.8Z" transform="matrix(0.891, -0.454, 0.454, 0.891, 87.699, 721.43)"/><path class="d" d="M.062,2.1,592.132,0,0,.38Z" transform="matrix(-0.891, -0.454, 0.454, -0.891, 1344.865, 723.05)"/><path class="c" d="M.064,0,610.891,5.685,0,1.758Z" transform="translate(302.861 951.072) rotate(-51)"/><path class="e" d="M.064,5.727,615.285,0,0,3.956Z" transform="translate(1133.527 955.874) rotate(-129)"/></g></svg>